<svg xmlns="http://www.w3.org/2000/svg" width="77.942" height="62.79" viewBox="0 0 77.942 62.79">
  <path id="ID_Icone" data-name="ID Icone" d="M71.708,67.29H7.734A6.734,6.734,0,0,1,1,60.556V25.2a6.734,6.734,0,0,1,6.734-6.734H32.987V11.734a6.734,6.734,0,1,1,13.468,0v6.734H71.708A6.734,6.734,0,0,1,78.442,25.2V60.556A6.734,6.734,0,0,1,71.708,67.29ZM27.96,54.644v.007c-.007,0-.03-1.315-.03-1.315a18.889,18.889,0,0,0,3.419-2.32A5.1,5.1,0,0,0,32.6,48.723a56.611,56.611,0,0,0,.4-6.234c0-3.471-1.739-7.205-6.746-7.205v0c-5.007,0-6.746,3.736-6.746,7.205a57.028,57.028,0,0,0,.4,6.234,5.1,5.1,0,0,0,1.247,2.293,18.888,18.888,0,0,0,3.419,2.32s-.024,1.315-.03,1.315v-.007s.049,1.929.049,2.5c0,2.293-2.3,3.4-3.742,3.4h-.005c-4.365.19-5.4,1.643-5.4,1.657a8.21,8.21,0,0,0-.975,1.724H38.041a7.839,7.839,0,0,0-.98-1.721c-.008-.015-1.039-1.466-5.4-1.657h-.005c-1.443,0-3.742-1.1-3.742-3.4C27.909,56.573,27.96,54.644,27.96,54.644Zm15.128-42.91a3.367,3.367,0,0,0-6.734,0v10.1a3.367,3.367,0,0,0,6.734,0ZM75.075,25.2a3.368,3.368,0,0,0-3.367-3.367H46.455a6.734,6.734,0,0,1-13.468,0H7.734A3.368,3.368,0,0,0,4.367,25.2V60.556a3.368,3.368,0,0,0,3.367,3.367h3.025a18.251,18.251,0,0,1,1.953-3.771c.042-.024,1.428-2.928,8.414-3.014.01-.035.017-1.754.037-1.729a12.266,12.266,0,0,1-1.769-1.374,7.049,7.049,0,0,1-2.444-4.349,66.429,66.429,0,0,1-.822-7.014c0-5.338,2.13-10.743,10.022-10.743h.2c7.892,0,10.022,5.4,10.022,10.743a66.43,66.43,0,0,1-.822,7.014,7.049,7.049,0,0,1-2.444,4.349A11.971,11.971,0,0,1,31.34,55.41c.022-.025.029,1.7.037,1.729,6.988.086,8.374,2.99,8.414,3.014a18.25,18.25,0,0,1,1.953,3.771H71.708a3.368,3.368,0,0,0,3.367-3.367ZM66.657,40.354h-20.2a1.684,1.684,0,0,1,0-3.367h20.2a1.684,1.684,0,1,1,0,3.367Zm-20.2,6.734h3.367a1.684,1.684,0,0,1,0,3.367H46.455a1.684,1.684,0,0,1,0-3.367Zm0,6.734h10.1a1.684,1.684,0,1,1,0,3.367h-10.1a1.684,1.684,0,0,1,0-3.367Zm6.734-5.051a1.682,1.682,0,0,1,1.684-1.684h6.734a1.684,1.684,0,1,1,0,3.367H54.873A1.682,1.682,0,0,1,53.189,48.772ZM38.037,11.734H41.4V15.1H38.037Z" transform="translate(-0.75 -4.75)" fill="#fff" stroke="#fff" stroke-width="0.5"/>
</svg>
